<svg width="491" height="491" viewBox="0 0 491 491" fill="none" xmlns="http://www.w3.org/2000/svg">
<rect width="491" height="491" rx="55" fill="#FFC800"/>
<path d="M174.227 147.5H154.318C153.955 144.924 153.212 142.636 152.091 140.636C150.97 138.606 149.53 136.879 147.773 135.455C146.015 134.03 143.985 132.939 141.682 132.182C139.409 131.424 136.939 131.045 134.273 131.045C129.455 131.045 125.258 132.242 121.682 134.636C118.106 137 115.333 140.455 113.364 145C111.394 149.515 110.409 155 110.409 161.455C110.409 168.091 111.394 173.667 113.364 178.182C115.364 182.697 118.152 186.106 121.727 188.409C125.303 190.712 129.439 191.864 134.136 191.864C136.773 191.864 139.212 191.515 141.455 190.818C143.727 190.121 145.742 189.106 147.5 187.773C149.258 186.409 150.712 184.758 151.864 182.818C153.045 180.879 153.864 178.667 154.318 176.182L174.227 176.273C173.712 180.545 172.424 184.667 170.364 188.636C168.333 192.576 165.591 196.106 162.136 199.227C158.712 202.318 154.621 204.773 149.864 206.591C145.136 208.379 139.788 209.273 133.818 209.273C125.515 209.273 118.091 207.394 111.545 203.636C105.03 199.879 99.8788 194.439 96.0909 187.318C92.3333 180.197 90.4545 171.576 90.4545 161.455C90.4545 151.303 92.3636 142.667 96.1818 135.545C100 128.424 105.182 123 111.727 119.273C118.273 115.515 125.636 113.636 133.818 113.636C139.212 113.636 144.212 114.394 148.818 115.909C153.455 117.424 157.561 119.636 161.136 122.545C164.712 125.424 167.621 128.955 169.864 133.136C172.136 137.318 173.591 142.106 174.227 147.5ZM199.341 208.727C196.189 208.727 193.424 207.977 191.045 206.477C188.682 204.977 186.833 202.879 185.5 200.182C184.182 197.485 183.523 194.333 183.523 190.727C183.523 187.091 184.182 183.917 185.5 181.205C186.833 178.492 188.682 176.386 191.045 174.886C193.424 173.386 196.189 172.636 199.341 172.636C202.492 172.636 205.25 173.386 207.614 174.886C209.992 176.386 211.841 178.492 213.159 181.205C214.492 183.917 215.159 187.091 215.159 190.727C215.159 194.333 214.492 197.485 213.159 200.182C211.841 202.879 209.992 204.977 207.614 206.477C205.25 207.977 202.492 208.727 199.341 208.727ZM199.341 203.909C201.735 203.909 203.705 203.295 205.25 202.068C206.795 200.841 207.939 199.227 208.682 197.227C209.424 195.227 209.795 193.061 209.795 190.727C209.795 188.394 209.424 186.22 208.682 184.205C207.939 182.189 206.795 180.561 205.25 179.318C203.705 178.076 201.735 177.455 199.341 177.455C196.947 177.455 194.977 178.076 193.432 179.318C191.886 180.561 190.742 182.189 190 184.205C189.258 186.22 188.886 188.394 188.886 190.727C188.886 193.061 189.258 195.227 190 197.227C190.742 199.227 191.886 200.841 193.432 202.068C194.977 203.295 196.947 203.909 199.341 203.909ZM228.71 187V208H223.347V173.091H228.528V178.545H228.983C229.801 176.773 231.044 175.348 232.71 174.273C234.377 173.182 236.528 172.636 239.165 172.636C241.528 172.636 243.597 173.121 245.369 174.091C247.142 175.045 248.521 176.5 249.506 178.455C250.491 180.394 250.983 182.848 250.983 185.818V208H245.619V186.182C245.619 183.439 244.907 181.303 243.483 179.773C242.059 178.227 240.104 177.455 237.619 177.455C235.907 177.455 234.377 177.826 233.028 178.568C231.695 179.311 230.642 180.394 229.869 181.818C229.097 183.242 228.71 184.97 228.71 187ZM285.511 180.909L280.693 182.273C280.39 181.47 279.943 180.689 279.352 179.932C278.777 179.159 277.989 178.523 276.989 178.023C275.989 177.523 274.708 177.273 273.148 177.273C271.011 177.273 269.231 177.765 267.807 178.75C266.398 179.72 265.693 180.955 265.693 182.455C265.693 183.788 266.178 184.841 267.148 185.614C268.117 186.386 269.633 187.03 271.693 187.545L276.875 188.818C279.996 189.576 282.322 190.735 283.852 192.295C285.383 193.841 286.148 195.833 286.148 198.273C286.148 200.273 285.572 202.061 284.42 203.636C283.284 205.212 281.693 206.455 279.648 207.364C277.602 208.273 275.223 208.727 272.511 208.727C268.951 208.727 266.004 207.955 263.67 206.409C261.337 204.864 259.86 202.606 259.239 199.636L264.33 198.364C264.814 200.242 265.731 201.652 267.08 202.591C268.443 203.53 270.223 204 272.42 204C274.92 204 276.905 203.47 278.375 202.409C279.86 201.333 280.602 200.045 280.602 198.545C280.602 197.333 280.178 196.318 279.33 195.5C278.481 194.667 277.178 194.045 275.42 193.636L269.602 192.273C266.405 191.515 264.057 190.341 262.557 188.75C261.072 187.144 260.33 185.136 260.33 182.727C260.33 180.758 260.883 179.015 261.989 177.5C263.11 175.985 264.633 174.795 266.557 173.932C268.496 173.068 270.693 172.636 273.148 172.636C276.602 172.636 279.314 173.394 281.284 174.909C283.269 176.424 284.678 178.424 285.511 180.909ZM308.403 208.727C305.131 208.727 302.313 207.955 299.949 206.409C297.585 204.864 295.767 202.735 294.494 200.023C293.222 197.311 292.585 194.212 292.585 190.727C292.585 187.182 293.237 184.053 294.54 181.341C295.858 178.614 297.691 176.485 300.04 174.955C302.403 173.409 305.161 172.636 308.312 172.636C310.767 172.636 312.979 173.091 314.949 174C316.919 174.909 318.532 176.182 319.79 177.818C321.047 179.455 321.828 181.364 322.131 183.545H316.767C316.358 181.955 315.449 180.545 314.04 179.318C312.646 178.076 310.767 177.455 308.403 177.455C306.313 177.455 304.479 178 302.903 179.091C301.343 180.167 300.123 181.689 299.244 183.659C298.381 185.614 297.949 187.909 297.949 190.545C297.949 193.242 298.373 195.591 299.222 197.591C300.085 199.591 301.297 201.144 302.858 202.25C304.434 203.356 306.282 203.909 308.403 203.909C309.797 203.909 311.062 203.667 312.199 203.182C313.335 202.697 314.297 202 315.085 201.091C315.873 200.182 316.434 199.091 316.767 197.818H322.131C321.828 199.879 321.078 201.735 319.881 203.386C318.699 205.023 317.131 206.326 315.176 207.295C313.237 208.25 310.979 208.727 308.403 208.727ZM329.972 208V173.091H335.335V208H329.972ZM332.699 167.273C331.653 167.273 330.752 166.917 329.994 166.205C329.252 165.492 328.881 164.636 328.881 163.636C328.881 162.636 329.252 161.78 329.994 161.068C330.752 160.356 331.653 160 332.699 160C333.744 160 334.638 160.356 335.381 161.068C336.138 161.78 336.517 162.636 336.517 163.636C336.517 164.636 336.138 165.492 335.381 166.205C334.638 166.917 333.744 167.273 332.699 167.273ZM359.341 208.727C356.189 208.727 353.424 207.977 351.045 206.477C348.682 204.977 346.833 202.879 345.5 200.182C344.182 197.485 343.523 194.333 343.523 190.727C343.523 187.091 344.182 183.917 345.5 181.205C346.833 178.492 348.682 176.386 351.045 174.886C353.424 173.386 356.189 172.636 359.341 172.636C362.492 172.636 365.25 173.386 367.614 174.886C369.992 176.386 371.841 178.492 373.159 181.205C374.492 183.917 375.159 187.091 375.159 190.727C375.159 194.333 374.492 197.485 373.159 200.182C371.841 202.879 369.992 204.977 367.614 206.477C365.25 207.977 362.492 208.727 359.341 208.727ZM359.341 203.909C361.735 203.909 363.705 203.295 365.25 202.068C366.795 200.841 367.939 199.227 368.682 197.227C369.424 195.227 369.795 193.061 369.795 190.727C369.795 188.394 369.424 186.22 368.682 184.205C367.939 182.189 366.795 180.561 365.25 179.318C363.705 178.076 361.735 177.455 359.341 177.455C356.947 177.455 354.977 178.076 353.432 179.318C351.886 180.561 350.742 182.189 350 184.205C349.258 186.22 348.886 188.394 348.886 190.727C348.886 193.061 349.258 195.227 350 197.227C350.742 199.227 351.886 200.841 353.432 202.068C354.977 203.295 356.947 203.909 359.341 203.909ZM405.347 193.727V173.091H410.71V208H405.347V202.091H404.983C404.165 203.864 402.892 205.371 401.165 206.614C399.438 207.841 397.256 208.455 394.619 208.455C392.438 208.455 390.498 207.977 388.801 207.023C387.104 206.053 385.771 204.598 384.801 202.659C383.831 200.705 383.347 198.242 383.347 195.273V173.091H388.71V194.909C388.71 197.455 389.422 199.485 390.847 201C392.286 202.515 394.119 203.273 396.347 203.273C397.68 203.273 399.036 202.932 400.415 202.25C401.809 201.568 402.975 200.523 403.915 199.114C404.869 197.705 405.347 195.909 405.347 193.727ZM445.261 180.909L440.443 182.273C440.14 181.47 439.693 180.689 439.102 179.932C438.527 179.159 437.739 178.523 436.739 178.023C435.739 177.523 434.458 177.273 432.898 177.273C430.761 177.273 428.981 177.765 427.557 178.75C426.148 179.72 425.443 180.955 425.443 182.455C425.443 183.788 425.928 184.841 426.898 185.614C427.867 186.386 429.383 187.03 431.443 187.545L436.625 188.818C439.746 189.576 442.072 190.735 443.602 192.295C445.133 193.841 445.898 195.833 445.898 198.273C445.898 200.273 445.322 202.061 444.17 203.636C443.034 205.212 441.443 206.455 439.398 207.364C437.352 208.273 434.973 208.727 432.261 208.727C428.701 208.727 425.754 207.955 423.42 206.409C421.087 204.864 419.61 202.606 418.989 199.636L424.08 198.364C424.564 200.242 425.481 201.652 426.83 202.591C428.193 203.53 429.973 204 432.17 204C434.67 204 436.655 203.47 438.125 202.409C439.61 201.333 440.352 200.045 440.352 198.545C440.352 197.333 439.928 196.318 439.08 195.5C438.231 194.667 436.928 194.045 435.17 193.636L429.352 192.273C426.155 191.515 423.807 190.341 422.307 188.75C420.822 187.144 420.08 185.136 420.08 182.727C420.08 180.758 420.633 179.015 421.739 177.5C422.86 175.985 424.383 174.795 426.307 173.932C428.246 173.068 430.443 172.636 432.898 172.636C436.352 172.636 439.064 173.394 441.034 174.909C443.019 176.424 444.428 178.424 445.261 180.909ZM92.0909 269.909H116.364L142 332.455H143.091L168.727 269.909H193V363H173.909V302.409H173.136L149.045 362.545H136.045L111.955 302.182H111.182V363H92.0909V269.909ZM240.67 364.364C233.489 364.364 227.307 362.909 222.125 360C216.973 357.061 213.004 352.909 210.216 347.545C207.428 342.152 206.034 335.773 206.034 328.409C206.034 321.227 207.428 314.924 210.216 309.5C213.004 304.076 216.928 299.848 221.989 296.818C227.08 293.788 233.049 292.273 239.898 292.273C244.504 292.273 248.792 293.015 252.761 294.5C256.761 295.955 260.246 298.152 263.216 301.091C266.216 304.03 268.549 307.727 270.216 312.182C271.883 316.606 272.716 321.788 272.716 327.727V333.045H213.761V321.045H254.489C254.489 318.258 253.883 315.788 252.67 313.636C251.458 311.485 249.777 309.803 247.625 308.591C245.504 307.348 243.034 306.727 240.216 306.727C237.277 306.727 234.67 307.409 232.398 308.773C230.155 310.106 228.398 311.909 227.125 314.182C225.852 316.424 225.201 318.924 225.17 321.682V333.091C225.17 336.545 225.807 339.53 227.08 342.045C228.383 344.561 230.216 346.5 232.58 347.864C234.943 349.227 237.746 349.909 240.989 349.909C243.14 349.909 245.11 349.606 246.898 349C248.686 348.394 250.216 347.485 251.489 346.273C252.761 345.061 253.731 343.576 254.398 341.818L272.307 343C271.398 347.303 269.534 351.061 266.716 354.273C263.928 357.455 260.322 359.939 255.898 361.727C251.504 363.485 246.428 364.364 240.67 364.364Z" fill="#0C203F"/>
</svg>
